<svg height="512pt" viewBox="-32 0 512 512" width="512pt" xmlns="http://www.w3.org/2000/svg"><path d="m432.734375 112.464844c-53.742187 0-97.464844-43.722656-97.464844-97.464844 0-8.285156-6.714843-15-15-15h-80.335937c-8.28125 0-15 6.714844-15 15v329.367188c0 31.59375-25.707032 57.296874-57.300782 57.296874s-57.296874-25.703124-57.296874-57.296874c0-31.597657 25.703124-57.300782 57.296874-57.300782 8.285157 0 15-6.714844 15-15v-80.335937c0-8.28125-6.714843-15-15-15-92.433593 0-167.632812 75.203125-167.632812 167.636719 0 92.433593 75.199219 167.632812 167.632812 167.632812 92.433594 0 167.636719-75.199219 167.636719-167.632812v-145.792969c29.851563 15.917969 63.074219 24.226562 97.464844 24.226562 8.285156 0 15-6.714843 15-15v-80.335937c0-8.28125-6.714844-15-15-15zm0 0"/></svg>